# xmcd
#
# Track frame offsets:
#	150
#	12723
#	26028
#	37684
#	47255
#	59800
#	72658
#	88129
#	102814
#	126361
#	134374
#	154703
#	167127
#	190327
#	207366
#	217946
#	225317
#	240221
#
# Disc length: 3372 seconds
#
# Revision: 2
# Processed by: cddbd v1.5.2PL0 Copyright (c) Steve Scherf et al.
# Submitted via: dBpowerAMP V4.0
#
DISCID=f60d2a12
DTITLE=Various Artist - Got a Feeling Called The Blues
DYEAR=2003
DGENRE=Blues
TTITLE0=Slim Harpo - I've Got Love if You Want It
TTITLE1=Muddy Waters - You Can't Lose What You Ain't Never Had
TTITLE2=Odetta - Midnight Special
TTITLE3=Son House - Grinnin' in Your Face
TTITLE4=Buddy Guy - I Love The Life I Live
TTITLE5=Junior Wells - Snatch it Back And Hold It
TTITLE6=Big Bill Broonzy - Nobody's Business
TTITLE7=Leadbelly - John Hardy
TTITLE8=Skip James - Devil Got my Woman
TTITLE9=Precious Bryant - Broke and Ain't Got a Dime
TTITLE10=Mississippi John Hurt - Make me a Pallet on Your Floor
TTITLE11=Howlin' Wolf - Spoonful
TTITLE12=John Lee Hooker - It Serves You Right to Suffer
TTITLE13=T-Bone Walker - T-Bone Blues
TTITLE14=Jimmy Reed - Take Out Some Insurance
TTITLE15=Lightnin' Hopkins - Long Time
TTITLE16=Bessie Smith - Backwater Blues
TTITLE17=Floyd Dixon - Hole in the Wall
EXTD=
EXTT0=
EXTT1=
EXTT2=
EXTT3=
EXTT4=
EXTT5=
EXTT6=
EXTT7=
EXTT8=
EXTT9=
EXTT10=
EXTT11=
EXTT12=
EXTT13=
EXTT14=
EXTT15=
EXTT16=
EXTT17=
PLAYORDER=
